<?xml version="1.0" encoding="utf-8"?>
<!-- Generated by IcoMoon.io -->
<!DOCTYPE svg PUBLIC "-//W3C//DTD SVG 1.1//EN" "http://www.w3.org/Graphics/SVG/1.1/DTD/svg11.dtd">
<svg version="1.1" xmlns="http://www.w3.org/2000/svg" xmlns:xlink="http://www.w3.org/1999/xlink" width="22" height="24" viewBox="0 0 22 24">
<path fill="#444444" d="M8.571 20.571q0 0.696-0.509 1.205t-1.205 0.509-1.205-0.509-0.509-1.205 0.509-1.205 1.205-0.509 1.205 0.509 0.509 1.205zM20.571 20.571q0 0.696-0.509 1.205t-1.205 0.509-1.205-0.509-0.509-1.205 0.509-1.205 1.205-0.509 1.205 0.509 0.509 1.205zM22.286 6v6.857q0 0.321-0.221 0.569t-0.542 0.288l-13.982 1.634q0.174 0.804 0.174 0.938 0 0.214-0.321 0.857h12.321q0.348 0 0.603 0.254t0.254 0.603-0.254 0.603-0.603 0.254h-13.714q-0.348 0-0.603-0.254t-0.254-0.603q0-0.147 0.107-0.422t0.214-0.482 0.288-0.536 0.208-0.395l-2.371-11.022h-2.732q-0.348 0-0.603-0.254t-0.254-0.603 0.254-0.603 0.603-0.254h3.429q0.214 0 0.382 0.087t0.261 0.208 0.174 0.328 0.107 0.348 0.074 0.395 0.060 0.348h16.085q0.348 0 0.603 0.254t0.254 0.603z"></path>
</svg>
